<?xml version="1.0" encoding="UTF-8" standalone="no"?>
<!-- Created with Inkscape (http://www.inkscape.org/) -->

<svg
   width="29.147354mm"
   height="24.340582mm"
   viewBox="0 0 29.147354 24.340582"
   version="1.1"
   id="svg5"
   xml:space="preserve"
   sodipodi:docname="vff_logo.svg"
   inkscape:version="1.2.2 (b0a8486, 2022-12-01)"
   xmlns:inkscape="http://www.inkscape.org/namespaces/inkscape"
   xmlns:sodipodi="http://sodipodi.sourceforge.net/DTD/sodipodi-0.dtd"
   xmlns="http://www.w3.org/2000/svg"
   xmlns:svg="http://www.w3.org/2000/svg"><sodipodi:namedview
     id="namedview7"
     pagecolor="#ffffff"
     bordercolor="#000000"
     borderopacity="0.25"
     inkscape:showpageshadow="2"
     inkscape:pageopacity="0.0"
     inkscape:pagecheckerboard="0"
     inkscape:deskcolor="#d1d1d1"
     inkscape:document-units="mm"
     showgrid="false"
     inkscape:zoom="2.5653317"
     inkscape:cx="55.158559"
     inkscape:cy="45.99795"
     inkscape:window-width="1309"
     inkscape:window-height="456"
     inkscape:window-x="0"
     inkscape:window-y="25"
     inkscape:window-maximized="0"
     inkscape:current-layer="layer1" /><defs
     id="defs2" /><g
     inkscape:label="Layer 1"
     inkscape:groupmode="layer"
     id="layer1"
     transform="translate(-72.579336,-61.363088)"><path
       style="fill:#ffffff;stroke-width:0.264583;fill-opacity:1"
       d="m 79.789232,74.567328 -7.209896,-11.13524 v -1.0345 -1.0345 h 11.641667 11.641663 v 1.05834 1.05833 h -9.950179 -9.950182 l 0.127541,0.33073 c 0.07015,0.1819 2.877075,4.57588 6.237618,9.76439 3.360544,5.18852 6.143623,9.55419 6.184621,9.70149 0.07804,0.28038 -1.140958,2.42919 -1.376979,2.4273 -0.07479,-6e-4 -3.380431,-5.01195 -7.345874,-11.13634 z m 3.833434,-1.14322 c -3.017894,-4.86259 -5.48708,-8.91071 -5.48708,-8.99583 0,-0.0851 3.998516,-0.15477 8.885591,-0.15477 h 8.885589 l -0.0907,0.19844 c -0.0499,0.10914 -0.4459,0.76398 -0.88002,1.45521 l -0.7893,1.25677 h -5.5243 -5.524303 l 0.366879,0.55255 0.36688,0.55255 4.692476,-0.0341 c 2.580868,-0.0188 4.692478,0.036 4.692478,0.12162 0,0.0857 -0.4201,0.81244 -0.93355,1.6151 l -0.93355,1.45937 -2.771239,-0.083 -2.771237,-0.083 0.06677,0.16548 c 0.304514,0.75474 3.518266,5.72975 3.649076,5.64891 0.0927,-0.0573 2.16849,-3.2047 4.61279,-6.9942 l 4.44419,-6.88998 h 1.573294 1.57329 l -0.60823,0.99219 c -0.87834,1.4328 -10.812494,16.75692 -11.315014,17.45418 -0.23267,0.32285 -0.48394,0.59074 -0.55836,0.59532 -0.0744,0.005 -2.604506,-3.97017 -5.622399,-8.83276 z"
       id="path1033" /></g></svg>
